# xmcd
#
# Track frame offsets:
# 150
# 23101
# 45588
# 62893
# 82851
# 106676
# 128505
# 156089
# 175483
# 196225
# 215338
# 236398
# 257099
# 279826
# 299475
# 315880
# 331454
#
# Disc length: 4675 seconds
#
#
# Revision: 0
# Processed by: cddbd v1.5.1PL0 Copyright (c) Steve Scherf et al.
# Submitted via: FreeRIP 2.942 
#
DISCID=df124111
DTITLE=Total Black In Love Vol. 6
DYEAR=1900
DGENRE=Hip-Hop
TTITLE0=You Make Me Feel Brand New
TTITLE1=The Closer I Get To You
TTITLE2=If Ain'T Got You
TTITLE3=Say A Little Prayer
TTITLE4=You Are My Starship
TTITLE5=Look In The Water
TTITLE6=You Don'T Know My Name
TTITLE7=Still In Love
TTITLE8=Sleep In The Middle
TTITLE9=Whispers
TTITLE10=Don'T Take Your Love Away
TTITLE11=Jeep
TTITLE12=Me, Myself And I
TTITLE13=Dreamer
TTITLE14=Wide Open
TTITLE15=Super Star
TTITLE16=Our First Born
EXTD=
EXTT0=
EXTT1=
EXTT2=
EXTT3=
EXTT4=
EXTT5=
EXTT6=
EXTT7=
EXTT8=
EXTT9=
EXTT10=
EXTT11=
EXTT12=
EXTT13=
EXTT14=
EXTT15=
EXTT16=
PLAYORDER=
